<mxfile host="app.diagrams.net" modified="2023-07-07T00:08:28.344Z" agent="Mozilla/5.0 (Windows NT 10.0; Win64; x64) AppleWebKit/537.36 (KHTML, like Gecko) Chrome/114.0.0.0 Safari/537.36" etag="muhr7qXHV7FUM3JeK2St" version="21.6.1" type="google">
  <diagram id="akEowiJKr_ScigKzrRVM" name="Page-1">
    <mxGraphModel grid="1" page="1" gridSize="10" guides="1" tooltips="1" connect="1" arrows="1" fold="1" pageScale="1" pageWidth="689" pageHeight="517" math="0" shadow="0">
      <root>
        <mxCell id="0" />
        <mxCell id="1" parent="0" />
        <mxCell id="Zh_yTgaDA4fyzwAwpNYt-10" value="&quot;Hilo 2&quot; bloqueado" style="fillColor=default;strokeColor=#108473;sketch=1;curveFitting=1;jiggle=2;strokeWidth=2;fontColor=#108473;fontFamily=Ink Free;fontSize=17;fontStyle=1" vertex="1" parent="1">
          <mxGeometry x="2380" y="870" width="140" height="49" as="geometry" />
        </mxCell>
        <mxCell id="tt-_E0HrCG3gTbbU4z1a-1" value="Dispositivo de&#xa;almacenamiento" style="shape=umlLifeline;perimeter=lifelinePerimeter;whiteSpace=wrap;container=1;dropTarget=0;collapsible=0;recursiveResize=0;outlineConnect=0;portConstraint=eastwest;newEdgeStyle={&quot;edgeStyle&quot;:&quot;elbowEdgeStyle&quot;,&quot;elbow&quot;:&quot;vertical&quot;,&quot;curved&quot;:0,&quot;rounded&quot;:0};size=70;fontSize=17;fontFamily=Ink Free;fillColor=#C2BEE6;strokeColor=#324AB2;fontColor=#324AB2;sketch=1;curveFitting=1;jiggle=2;fontStyle=1;strokeWidth=2;" vertex="1" parent="1">
          <mxGeometry x="2840" y="530" width="150" height="650" as="geometry" />
        </mxCell>
        <mxCell id="tt-_E0HrCG3gTbbU4z1a-2" value="" style="points=[];perimeter=orthogonalPerimeter;outlineConnect=0;targetShapes=umlLifeline;portConstraint=eastwest;newEdgeStyle={&quot;edgeStyle&quot;:&quot;elbowEdgeStyle&quot;,&quot;elbow&quot;:&quot;vertical&quot;,&quot;curved&quot;:0,&quot;rounded&quot;:0};strokeWidth=2;strokeColor=#AC3235;fillColor=#EBBBB6;sketch=1;curveFitting=1;jiggle=2;fontSize=17;fontFamily=Ink Free;fontColor=#AC3235;fontStyle=1;" vertex="1" parent="tt-_E0HrCG3gTbbU4z1a-1">
          <mxGeometry x="60" y="360" width="30" height="130" as="geometry" />
        </mxCell>
        <mxCell id="tt-_E0HrCG3gTbbU4z1a-4" value="Iniciar lectura" style="verticalAlign=bottom;endArrow=open;edgeStyle=elbowEdgeStyle;elbow=vertical;curved=0;rounded=0;strokeColor=#AC3235;strokeWidth=2;fontFamily=Ink Free;fontSize=17;fontStyle=1;fontColor=#324AB2;labelBackgroundColor=none;spacingBottom=4;endFill=0;dashed=1;" edge="1" parent="1" target="tt-_E0HrCG3gTbbU4z1a-2">
          <mxGeometry x="0.0667" relative="1" as="geometry">
            <Array as="points">
              <mxPoint x="2820" y="890" />
            </Array>
            <mxPoint as="offset" />
            <mxPoint x="2740" y="890" as="sourcePoint" />
            <mxPoint x="2890" y="890" as="targetPoint" />
          </mxGeometry>
        </mxCell>
        <mxCell id="tt-_E0HrCG3gTbbU4z1a-5" value="Completada" style="verticalAlign=bottom;endArrow=open;edgeStyle=elbowEdgeStyle;elbow=vertical;curved=0;rounded=0;strokeColor=#324AB2;strokeWidth=2;fontFamily=Ink Free;fontSize=17;fontStyle=1;fontColor=#324AB2;labelBackgroundColor=none;spacingBottom=4;dashed=1;endFill=0;" edge="1" parent="1" target="SuRW3feb76WWDhJee8ig-24">
          <mxGeometry x="0.0588" relative="1" as="geometry">
            <Array as="points">
              <mxPoint x="2800" y="1020" />
            </Array>
            <mxPoint as="offset" />
            <mxPoint x="2900" y="1020" as="sourcePoint" />
            <mxPoint x="2750" y="1020" as="targetPoint" />
          </mxGeometry>
        </mxCell>
        <mxCell id="SuRW3feb76WWDhJee8ig-5" value="Hilo 1&#xa;de usuario" style="shape=umlLifeline;perimeter=lifelinePerimeter;whiteSpace=wrap;container=1;dropTarget=0;collapsible=0;recursiveResize=0;outlineConnect=0;portConstraint=eastwest;newEdgeStyle={&quot;edgeStyle&quot;:&quot;elbowEdgeStyle&quot;,&quot;elbow&quot;:&quot;vertical&quot;,&quot;curved&quot;:0,&quot;rounded&quot;:0};size=70;fillColor=#C2BEE6;sketch=1;curveFitting=1;jiggle=2;fontColor=#324AB2;fontStyle=1;fontSize=17;fontFamily=Ink Free;strokeColor=#324AB2;strokeWidth=2;" vertex="1" parent="1">
          <mxGeometry x="2080" y="530" width="150" height="650" as="geometry" />
        </mxCell>
        <mxCell id="SuRW3feb76WWDhJee8ig-6" value="" style="points=[];perimeter=orthogonalPerimeter;outlineConnect=0;targetShapes=umlLifeline;portConstraint=eastwest;newEdgeStyle={&quot;edgeStyle&quot;:&quot;elbowEdgeStyle&quot;,&quot;elbow&quot;:&quot;vertical&quot;,&quot;curved&quot;:0,&quot;rounded&quot;:0};strokeWidth=2;strokeColor=#AC3235;fillColor=#EBBBB6;sketch=1;curveFitting=1;jiggle=2;fontSize=17;fontFamily=Ink Free;fontColor=#AC3235;fontStyle=1;" vertex="1" parent="SuRW3feb76WWDhJee8ig-5">
          <mxGeometry x="60" y="90" width="30" height="90" as="geometry" />
        </mxCell>
        <mxCell id="tTOYFJMyA5tBc-jheg9V-3" value="" style="points=[];perimeter=orthogonalPerimeter;outlineConnect=0;targetShapes=umlLifeline;portConstraint=eastwest;newEdgeStyle={&quot;edgeStyle&quot;:&quot;elbowEdgeStyle&quot;,&quot;elbow&quot;:&quot;vertical&quot;,&quot;curved&quot;:0,&quot;rounded&quot;:0};strokeWidth=2;strokeColor=#AC3235;fillColor=#EBBBB6;sketch=1;curveFitting=1;jiggle=2;fontSize=17;fontFamily=Ink Free;fontColor=#AC3235;fontStyle=1;" vertex="1" parent="SuRW3feb76WWDhJee8ig-5">
          <mxGeometry x="60" y="360" width="30" height="270" as="geometry" />
        </mxCell>
        <mxCell id="SuRW3feb76WWDhJee8ig-7" value="Núcleo" style="shape=umlLifeline;perimeter=lifelinePerimeter;whiteSpace=wrap;container=1;dropTarget=0;collapsible=0;recursiveResize=0;outlineConnect=0;portConstraint=eastwest;newEdgeStyle={&quot;edgeStyle&quot;:&quot;elbowEdgeStyle&quot;,&quot;elbow&quot;:&quot;vertical&quot;,&quot;curved&quot;:0,&quot;rounded&quot;:0};size=70;fontSize=17;fontFamily=Ink Free;fillColor=#C2BEE6;strokeColor=#324AB2;fontColor=#324AB2;sketch=1;curveFitting=1;jiggle=2;fontStyle=1;strokeWidth=2;" vertex="1" parent="1">
          <mxGeometry x="2650" y="530" width="150" height="650" as="geometry" />
        </mxCell>
        <mxCell id="SuRW3feb76WWDhJee8ig-8" value="" style="points=[];perimeter=orthogonalPerimeter;outlineConnect=0;targetShapes=umlLifeline;portConstraint=eastwest;newEdgeStyle={&quot;edgeStyle&quot;:&quot;elbowEdgeStyle&quot;,&quot;elbow&quot;:&quot;vertical&quot;,&quot;curved&quot;:0,&quot;rounded&quot;:0};strokeWidth=2;strokeColor=#AC3235;fillColor=#EBBBB6;sketch=1;curveFitting=1;jiggle=2;fontSize=17;fontFamily=Ink Free;fontColor=#AC3235;fontStyle=1;" vertex="1" parent="SuRW3feb76WWDhJee8ig-7">
          <mxGeometry x="60" y="330" width="30" height="30" as="geometry" />
        </mxCell>
        <mxCell id="SuRW3feb76WWDhJee8ig-24" value="" style="points=[];perimeter=orthogonalPerimeter;outlineConnect=0;targetShapes=umlLifeline;portConstraint=eastwest;newEdgeStyle={&quot;edgeStyle&quot;:&quot;elbowEdgeStyle&quot;,&quot;elbow&quot;:&quot;vertical&quot;,&quot;curved&quot;:0,&quot;rounded&quot;:0};strokeWidth=2;strokeColor=#AC3235;fillColor=#EBBBB6;sketch=1;curveFitting=1;jiggle=2;fontSize=17;fontFamily=Ink Free;fontColor=#AC3235;fontStyle=1;" vertex="1" parent="SuRW3feb76WWDhJee8ig-7">
          <mxGeometry x="60" y="490" width="30" height="30" as="geometry" />
        </mxCell>
        <mxCell id="SuRW3feb76WWDhJee8ig-9" value="Librería de&#xa;hilos de usuario" style="shape=umlLifeline;perimeter=lifelinePerimeter;whiteSpace=wrap;container=1;dropTarget=0;collapsible=0;recursiveResize=0;outlineConnect=0;portConstraint=eastwest;newEdgeStyle={&quot;edgeStyle&quot;:&quot;elbowEdgeStyle&quot;,&quot;elbow&quot;:&quot;vertical&quot;,&quot;curved&quot;:0,&quot;rounded&quot;:0};size=70;fontSize=17;fontFamily=Ink Free;fillColor=#C2BEE6;strokeColor=#324AB2;fontColor=#324AB2;sketch=1;curveFitting=1;jiggle=2;fontStyle=1;strokeWidth=2;" vertex="1" parent="1">
          <mxGeometry x="2280" y="530" width="150" height="650" as="geometry" />
        </mxCell>
        <mxCell id="SuRW3feb76WWDhJee8ig-20" value="" style="points=[];perimeter=orthogonalPerimeter;outlineConnect=0;targetShapes=umlLifeline;portConstraint=eastwest;newEdgeStyle={&quot;edgeStyle&quot;:&quot;elbowEdgeStyle&quot;,&quot;elbow&quot;:&quot;vertical&quot;,&quot;curved&quot;:0,&quot;rounded&quot;:0};strokeWidth=2;strokeColor=#AC3235;fillColor=#EBBBB6;sketch=1;curveFitting=1;jiggle=2;fontSize=17;fontFamily=Ink Free;fontColor=#AC3235;fontStyle=1;" vertex="1" parent="SuRW3feb76WWDhJee8ig-9">
          <mxGeometry x="60" y="180" width="30" height="30" as="geometry" />
        </mxCell>
        <mxCell id="tTOYFJMyA5tBc-jheg9V-1" value="" style="points=[];perimeter=orthogonalPerimeter;outlineConnect=0;targetShapes=umlLifeline;portConstraint=eastwest;newEdgeStyle={&quot;edgeStyle&quot;:&quot;elbowEdgeStyle&quot;,&quot;elbow&quot;:&quot;vertical&quot;,&quot;curved&quot;:0,&quot;rounded&quot;:0};strokeWidth=2;strokeColor=#AC3235;fillColor=#EBBBB6;sketch=1;curveFitting=1;jiggle=2;fontSize=17;fontFamily=Ink Free;fontColor=#AC3235;fontStyle=1;" vertex="1" parent="SuRW3feb76WWDhJee8ig-9">
          <mxGeometry x="60" y="290" width="30" height="70" as="geometry" />
        </mxCell>
        <mxCell id="SuRW3feb76WWDhJee8ig-15" value="read()&#xa;(Operación de E/S)" style="verticalAlign=bottom;endArrow=none;edgeStyle=elbowEdgeStyle;elbow=vertical;curved=0;rounded=0;strokeColor=#AC3235;strokeWidth=2;fontFamily=Ink Free;fontSize=17;fontStyle=1;fontColor=#324AB2;labelBackgroundColor=none;spacingBottom=4;endFill=0;startArrow=block;startFill=1;" edge="1" parent="1" target="SuRW3feb76WWDhJee8ig-22">
          <mxGeometry relative="1" as="geometry">
            <Array as="points">
              <mxPoint x="2466" y="820" />
            </Array>
            <mxPoint as="offset" />
            <mxPoint x="2370" y="820" as="sourcePoint" />
            <mxPoint x="2520" y="820" as="targetPoint" />
          </mxGeometry>
        </mxCell>
        <mxCell id="SuRW3feb76WWDhJee8ig-18" value="Ejecutándose en&#xa;el proceso" style="fillColor=default;strokeColor=#AC3235;sketch=1;curveFitting=1;jiggle=2;strokeWidth=2;fontColor=#AC3235;fontFamily=Ink Free;fontSize=17;fontStyle=1" vertex="1" parent="1">
          <mxGeometry x="2180" y="620" width="140" height="49" as="geometry" />
        </mxCell>
        <mxCell id="SuRW3feb76WWDhJee8ig-19" value="yield()" style="verticalAlign=bottom;endArrow=block;edgeStyle=elbowEdgeStyle;elbow=vertical;curved=0;rounded=0;strokeColor=#AC3235;strokeWidth=2;fontFamily=Ink Free;fontSize=17;fontStyle=1;fontColor=#324AB2;labelBackgroundColor=none;spacingBottom=4;" edge="1" parent="1">
          <mxGeometry x="0.0025" relative="1" as="geometry">
            <Array as="points">
              <mxPoint x="2266" y="710" />
            </Array>
            <mxPoint as="offset" />
            <mxPoint x="2170" y="710" as="sourcePoint" />
            <mxPoint x="2340" y="710" as="targetPoint" />
          </mxGeometry>
        </mxCell>
        <mxCell id="SuRW3feb76WWDhJee8ig-21" value="Hilo 2&#xa;de usuario" style="shape=umlLifeline;perimeter=lifelinePerimeter;whiteSpace=wrap;container=1;dropTarget=0;collapsible=0;recursiveResize=0;outlineConnect=0;portConstraint=eastwest;newEdgeStyle={&quot;edgeStyle&quot;:&quot;elbowEdgeStyle&quot;,&quot;elbow&quot;:&quot;vertical&quot;,&quot;curved&quot;:0,&quot;rounded&quot;:0};size=70;fillColor=#C2BEE6;sketch=1;curveFitting=1;jiggle=2;fontColor=#324AB2;fontStyle=1;fontSize=17;fontFamily=Ink Free;strokeColor=#324AB2;strokeWidth=2;" vertex="1" parent="1">
          <mxGeometry x="2470" y="530" width="150" height="650" as="geometry" />
        </mxCell>
        <mxCell id="SuRW3feb76WWDhJee8ig-22" value="" style="points=[];perimeter=orthogonalPerimeter;outlineConnect=0;targetShapes=umlLifeline;portConstraint=eastwest;newEdgeStyle={&quot;edgeStyle&quot;:&quot;elbowEdgeStyle&quot;,&quot;elbow&quot;:&quot;vertical&quot;,&quot;curved&quot;:0,&quot;rounded&quot;:0};strokeWidth=2;strokeColor=#AC3235;fillColor=#EBBBB6;sketch=1;curveFitting=1;jiggle=2;fontSize=17;fontFamily=Ink Free;fontColor=#AC3235;fontStyle=1;" vertex="1" parent="SuRW3feb76WWDhJee8ig-21">
          <mxGeometry x="60" y="210" width="30" height="80" as="geometry" />
        </mxCell>
        <mxCell id="SuRW3feb76WWDhJee8ig-23" value="Ejecución" style="verticalAlign=bottom;endArrow=block;edgeStyle=elbowEdgeStyle;elbow=vertical;curved=0;rounded=0;strokeColor=#AC3235;strokeWidth=2;fontFamily=Ink Free;fontSize=17;fontStyle=1;fontColor=#324AB2;labelBackgroundColor=none;spacingBottom=4;" edge="1" parent="1" target="SuRW3feb76WWDhJee8ig-22">
          <mxGeometry x="0.0025" relative="1" as="geometry">
            <Array as="points">
              <mxPoint x="2466" y="740" />
            </Array>
            <mxPoint as="offset" />
            <mxPoint x="2370" y="740" as="sourcePoint" />
            <mxPoint x="2520" y="740" as="targetPoint" />
          </mxGeometry>
        </mxCell>
        <mxCell id="SuRW3feb76WWDhJee8ig-25" value="Operación&#xa;completada" style="verticalAlign=bottom;endArrow=open;edgeStyle=elbowEdgeStyle;elbow=vertical;curved=0;rounded=0;strokeColor=#324AB2;strokeWidth=2;fontFamily=Ink Free;fontSize=17;fontStyle=1;fontColor=#324AB2;labelBackgroundColor=none;spacingBottom=4;dashed=1;endFill=0;" edge="1" parent="1" target="tTOYFJMyA5tBc-jheg9V-5">
          <mxGeometry x="-0.5429" relative="1" as="geometry">
            <Array as="points">
              <mxPoint x="2610" y="1050" />
            </Array>
            <mxPoint as="offset" />
            <mxPoint x="2710" y="1050" as="sourcePoint" />
            <mxPoint x="2390" y="1050" as="targetPoint" />
          </mxGeometry>
        </mxCell>
        <mxCell id="tTOYFJMyA5tBc-jheg9V-2" value="(async) read()" style="verticalAlign=bottom;endArrow=open;edgeStyle=elbowEdgeStyle;elbow=vertical;curved=0;rounded=0;strokeColor=#AC3235;strokeWidth=2;fontFamily=Ink Free;fontSize=17;fontStyle=1;fontColor=#324AB2;labelBackgroundColor=none;spacingBottom=4;dashed=1;endFill=0;" edge="1" parent="1" target="SuRW3feb76WWDhJee8ig-8">
          <mxGeometry x="0.5294" relative="1" as="geometry">
            <Array as="points">
              <mxPoint x="2466" y="860" />
            </Array>
            <mxPoint as="offset" />
            <mxPoint x="2370" y="860" as="sourcePoint" />
            <mxPoint x="2700" y="860" as="targetPoint" />
          </mxGeometry>
        </mxCell>
        <mxCell id="tTOYFJMyA5tBc-jheg9V-4" value="Continuar&#xa;trás yield()" style="verticalAlign=bottom;endArrow=open;edgeStyle=elbowEdgeStyle;elbow=vertical;curved=0;rounded=0;strokeColor=#AC3235;strokeWidth=2;fontFamily=Ink Free;fontSize=17;fontStyle=1;fontColor=#324AB2;labelBackgroundColor=none;spacingBottom=4;dashed=1;endFill=0;" edge="1" parent="1" target="tTOYFJMyA5tBc-jheg9V-3">
          <mxGeometry x="-0.0667" relative="1" as="geometry">
            <Array as="points">
              <mxPoint x="2240" y="890" />
            </Array>
            <mxPoint as="offset" />
            <mxPoint x="2340" y="890" as="sourcePoint" />
            <mxPoint x="2190" y="890" as="targetPoint" />
          </mxGeometry>
        </mxCell>
        <mxCell id="tTOYFJMyA5tBc-jheg9V-5" value="" style="points=[];perimeter=orthogonalPerimeter;outlineConnect=0;targetShapes=umlLifeline;portConstraint=eastwest;newEdgeStyle={&quot;edgeStyle&quot;:&quot;elbowEdgeStyle&quot;,&quot;elbow&quot;:&quot;vertical&quot;,&quot;curved&quot;:0,&quot;rounded&quot;:0};strokeWidth=2;strokeColor=#324AB2;fillColor=#C2BEE6;sketch=1;curveFitting=1;jiggle=2;fontSize=17;fontFamily=Ink Free;fontColor=#324AB2;fontStyle=1;" vertex="1" parent="1">
          <mxGeometry x="2340" y="1050" width="30" height="50" as="geometry" />
        </mxCell>
        <mxCell id="tTOYFJMyA5tBc-jheg9V-6" value="&quot;Hilo 2&quot; desbloqueado&#xa;Tiene que esperar hasta que &quot;Hilo 1&quot;&#xa;libere el proceso" style="fillColor=default;strokeColor=#108473;sketch=1;curveFitting=1;jiggle=2;strokeWidth=2;fontColor=#108473;fontFamily=Ink Free;fontSize=17;fontStyle=1" vertex="1" parent="1">
          <mxGeometry x="2380" y="1070" width="310" height="80" as="geometry" />
        </mxCell>
      </root>
    </mxGraphModel>
  </diagram>
</mxfile>
